<svg width="248" height="480" viewBox="0 0 248 480" fill="none" xmlns="http://www.w3.org/2000/svg">
<path d="M239.709 114.065H237.067V41.8159C237.067 30.7259 232.654 20.0901 224.8 12.2483C216.946 4.40643 206.294 0.000946045 195.187 0.000946045H41.8803C30.7733 0.000946045 20.1211 4.40643 12.2672 12.2483C4.41327 20.0901 0.000976562 30.7259 0.000976562 41.8159V438.183C0.000976562 449.273 4.41327 459.909 12.2672 467.751C20.1211 475.593 30.7733 479.998 41.8803 479.998H195.187C206.294 479.998 216.946 475.593 224.8 467.751C232.654 459.909 237.066 449.273 237.066 438.183V165.494H239.708L239.709 114.065Z" fill="#3F3D56"/>
<path d="M196.877 10.8791H176.866C177.786 13.132 178.138 15.5765 177.89 17.9971C177.641 20.4177 176.8 22.7401 175.441 24.7597C174.082 26.7794 172.246 28.4342 170.095 29.5784C167.944 30.7225 165.545 31.321 163.108 31.321H75.2805C72.8438 31.3208 70.4445 30.7222 68.294 29.5781C66.1436 28.434 64.3079 26.7793 62.9487 24.76C61.5896 22.7407 60.7486 20.4186 60.5 17.9983C60.2514 15.578 60.6027 13.1339 61.523 10.8811H42.8292C34.5343 10.8811 26.5791 14.1712 20.7137 20.0276C14.8483 25.8839 11.5532 33.8269 11.5532 42.1091V437.893C11.5532 446.175 14.8483 454.118 20.7137 459.974C26.5791 465.831 34.5343 469.121 42.8292 469.121H196.871C205.166 469.121 213.121 465.831 218.987 459.974C224.852 454.118 228.147 446.175 228.147 437.893V42.1071C228.147 33.8249 224.852 25.882 218.987 20.0256C213.121 14.1692 205.166 10.8791 196.871 10.8791H196.877Z" fill="white"/>
<path d="M208.557 88.7004H31.1526V391.299H208.557V88.7004Z" fill="#E6E6E6"/>
<path d="M120.118 447.003C129.603 447.003 137.292 439.326 137.292 429.855C137.292 420.384 129.603 412.707 120.118 412.707C110.633 412.707 102.943 420.384 102.943 429.855C102.943 439.326 110.633 447.003 120.118 447.003Z" fill="#E6E6E6"/>
<path d="M202.215 423.69L200.253 442.628L211.371 441.322L212.678 425.65L202.215 423.69Z" fill="#DEA6A6"/>
<path d="M172.785 280.03C172.785 280.03 115.886 334.882 151.857 351.86H162.975C162.975 351.86 187.173 312.024 198.945 312.68L202.215 350.554L200.253 426.956L214.642 427.609C214.642 427.609 223.144 389.081 222.49 367.532L237.532 287.866L172.785 280.03Z" fill="#2F2E41"/>
<path d="M155.125 349.248L162.973 351.86C162.973 351.86 193.712 344.677 195.671 345.331L201.757 345.289L201.559 329.657H175.401L155.125 349.248Z" fill="#2F2E41"/>
<path d="M212.678 438.71C212.678 438.71 200.906 433.486 198.944 438.71C196.982 443.934 197.636 458.953 197.636 458.953C199.205 461.965 199.668 465.431 198.944 468.748C197.636 473.972 204.176 476.584 212.678 473.972C221.181 471.361 221.181 464.83 221.181 464.83L212.678 438.71Z" fill="#2F2E41"/>
<path d="M222.488 328.349C222.488 328.349 231.644 323.125 230.99 330.961C230.448 336.136 229.125 341.2 227.066 345.98C227.066 345.98 235.568 368.182 227.066 370.141C218.564 372.1 212.024 367.529 212.024 364.264C212.024 360.998 222.488 328.349 222.488 328.349Z" fill="#2F2E41"/>
<path d="M193.712 149.429L195.02 174.244L206.138 184.037L218.565 166.406V148.776L193.712 149.429Z" fill="#DEA6A6"/>
<path d="M202.214 174.243L194.727 168.688L189.788 176.202L167.552 189.261L180.631 223.217L181.285 256.52C181.285 256.52 157.087 281.334 171.475 284.599C185.863 287.865 236.876 295.047 239.492 289.171C242.108 283.294 236.222 222.564 236.222 222.564L238.184 170.977L218.565 163.894L202.214 174.243Z" fill="#3469D0"/>
<path d="M162.319 215.601C162.319 215.601 157.087 252.601 166.898 252.601C172.724 252.621 178.499 251.512 183.902 249.336L176.054 229.093L179.324 215.38L162.319 215.601Z" fill="#DEA6A6"/>
<path d="M177.362 248.033L184.556 249.338C184.556 249.338 205.484 236.279 206.792 235.625C208.1 234.971 185.864 223.871 185.864 223.871L170.822 229.748L177.362 248.033Z" fill="#DEA6A6"/>
<path opacity="0.1" d="M185.864 223.871L176.418 227.561L179.324 215.382L162.32 215.6C162.32 215.6 157.088 252.6 166.898 252.6C172.725 252.62 178.499 251.512 183.903 249.336L183.853 249.208L184.557 249.336C184.557 249.336 205.485 236.277 206.793 235.623C208.101 234.968 185.864 223.871 185.864 223.871Z" fill="black"/>
<path d="M208.842 161.811C219.156 161.811 227.517 153.462 227.517 143.164C227.517 132.866 219.156 124.518 208.842 124.518C198.528 124.518 190.167 132.866 190.167 143.164C190.167 153.462 198.528 161.811 208.842 161.811Z" fill="#DEA6A6"/>
<path d="M192.331 122.128L188.682 120.67C188.682 120.67 196.311 112.283 206.926 113.012L203.94 109.731C203.94 109.731 211.238 106.813 217.872 114.471C221.359 118.494 225.394 123.227 227.912 128.557H231.82L230.189 132.142L235.896 135.73L230.036 135.085C230.591 138.181 230.402 141.364 229.482 144.372L229.64 147.208C229.64 147.208 222.848 136.716 222.848 135.258V138.905C222.848 138.905 219.199 135.623 219.199 133.435L217.209 135.988L216.211 131.97L203.938 135.981L205.928 132.699L198.299 133.793L201.284 129.783C201.284 129.783 192.66 134.523 192.328 138.534C191.996 142.545 187.684 147.65 187.684 147.65L185.694 144.003C185.694 144.003 182.711 127.598 192.331 122.128Z" fill="#2F2E41"/>
<path d="M225.104 204.281C221.803 208.353 219.962 213.41 219.872 218.647L185.209 217.341C185.209 217.341 176.053 216.035 176.053 222.566V229.095C176.053 229.095 180.631 227.136 183.247 229.095C185.863 231.054 213.986 248.033 227.72 241.502C241.454 234.972 244.724 209.505 244.724 209.505C244.724 209.505 232.298 199.057 225.104 204.281Z" fill="#DEA6A6"/>
<path d="M232.956 171.631L238.188 170.978C238.188 170.978 248.652 172.283 247.344 192.527C246.036 212.77 245.382 214.076 245.382 214.076C245.382 214.076 231.648 201.669 221.838 207.547L232.956 171.631Z" fill="#3469D0"/>
<path d="M170.168 189.264H167.552C164.162 193.539 162.319 198.831 162.32 204.283C162.259 210.122 161.491 215.933 160.031 221.588L180.632 217.996L170.168 189.264Z" fill="#3469D0"/>
</svg>
